# xmcd
#
# Track frame offsets: 
#        150
#        16825
#        41336
#        59768
#        80685
#        97616
#        118639
#        122913
#        141245
#        164046
#        175859
#
# Disc length: 2549 seconds
#
# Revision: 0
# Processed by: cddbd v1.5.1PL2 Copyright (c) Steve Scherf et al.
# Submitted via: ExactAudioCopy v0.95a5
#
DISCID=9109f30b
DTITLE=Big Gilson and The Wolf with Blues Dynamite - Bring It Back Home
DYEAR=2006
DGENRE=Blues
TTITLE0=What's Wrong With That
TTITLE1=Bring It Back Home
TTITLE2=Hint Of A Smile
TTITLE3=Ramshackle Town
TTITLE4=Mine All Mine
TTITLE5=Hoochie Coochie Man
TTITLE6=Slidin' Around
TTITLE7=Praise The Lord
TTITLE8=Black Haired Lady
TTITLE9=Lulu Boogie
TTITLE10=Tore Down
EXTD=
EXTT0=
EXTT1=
EXTT2=
EXTT3=
EXTT4=
EXTT5=
EXTT6=
EXTT7=
EXTT8=
EXTT9=
EXTT10=
PLAYORDER=
